<svg id="Layer_1" data-name="Layer 1" xmlns="http://www.w3.org/2000/svg" width="489.49" height="127.14" viewBox="0 0 489.49 127.14">
  <defs>
    <style>
      .cls-1 {
        fill: #282828;
      }

      .cls-2 {
        fill: #455a60;
      }

      .cls-3 {
        fill: #fff;
      }
    </style>
  </defs>
  <title>contact</title>
  <g>
    <g>
      <path class="cls-1" d="M57.91,290.19c-8,6.06-15.44,7.76-24.48,7.76-15.87,0-26.88-6.31-26.88-21.5,0-11.86,9.22-23.71,29.69-23.71,12.71,0,20,5.29,20,14.07,0,5.72-3.84,10.07-10.15,10.07-5.8,0-9.73-3.92-9.73-9.3,0-5,3.67-8.87,9.22-8.87,4.94,0,8.27,3.24,8.27,8h1.2v-.26c-.18-6.4-5.46-10.75-12.37-10.75-8.54,0-13.65,6.57-13.65,20.22,0,12.46,4.43,18.94,12.88,18.94,4.77,0,9.55-1.71,15.18-5.89Z" transform="translate(-6.55 -170.82)"/>
      <path class="cls-1" d="M118.65,273.3c0,15.44-11.26,24.65-29.94,24.65-13.57,0-26.53-6.31-26.53-21.5,0-11.86,8.1-23.71,29.68-23.71C103.55,252.74,118.65,258,118.65,273.3Zm-33,3.15c0,18.86,2,20.22,4.35,20.22,3.32,0,5.12-4.52,5.12-23.63,0-16.81-2-19-4.87-19C87.09,254,85.64,257.17,85.64,276.45Z" transform="translate(-6.55 -170.82)"/>
      <path class="cls-1" d="M124.54,268.52a9.13,9.13,0,0,1-2.14-5.8c0-6,5.38-10,13.48-10,7.43,0,13.31,4.43,13.31,14.24v8.71h1.2v-4.61c0-14,8.7-18.17,17.23-18.17,8.87,0,14.25,5.12,14.25,14.33V287.8c0,3,1.11,4.09,2.39,4.09,1.53,0,2.81-1.36,2.81-4a7.46,7.46,0,0,0-2-5.28l1-.77a9.57,9.57,0,0,1,2.14,6.05c0,5.55-5.12,10.07-14.42,10.07-8.79,0-14.59-4.18-14.59-14.33V265.7c0-4.09-.85-5.63-2.65-5.63-2.3,0-5,3-5,10.84v20.73c0,1.79.85,2.9,2.39,2.81a2.89,2.89,0,0,0,1.62-.42l.43.94c-2.82,1.7-6.83,3-13.31,3-10.67,0-14.59-5.88-14.59-14.59,0-5,1.37-13.65,1.37-17.57,0-4.61-1-7-2.91-7-1.7,0-3,1.45-3,3.93a7.49,7.49,0,0,0,1.88,5Z" transform="translate(-6.55 -170.82)"/>
      <path class="cls-1" d="M215.9,237V254h6.15v1.36H215.9v29.18c0,4.77,1.2,7.33,3.42,7.33,1.62,0,3.15-1.45,3.15-4.26a7.88,7.88,0,0,0-2-5.12l1-.68a8.56,8.56,0,0,1,2.14,5.8c0,7.93-7.68,10.32-14.59,10.32-10.58,0-15.61-4.69-15.61-14.5V255.38h-4.78V254h4.78c10.92,0,21.24-2.73,21.24-17.07Z" transform="translate(-6.55 -170.82)"/>
      <path class="cls-1" d="M233.56,266.64a7.4,7.4,0,0,1,7.68-7.68c4.78,0,7.93,3.33,7.93,8.28,0,5.12-3.58,8.53-8.87,8.53-5.46,0-9.13-3.58-9.13-9,0-9.05,7.77-14,28-14,13.3,0,20.22,5.8,20.22,17,0,3.25-1.11,9.9-1.11,15.1,0,4.78,1,7.08,3.07,7.08,1.62,0,2.73-1.7,2.73-4.26a7.33,7.33,0,0,0-2-5.12l1-.68a9.54,9.54,0,0,1,2.13,5.8c0,7.93-6.65,10.32-13.14,10.32-8.87,0-14.07-4.09-14.07-17.06v-2.56h-1.2v2.56c0,13-11.09,17.06-16.72,17.06-7.42,0-11.77-3.67-11.77-9.89,0-6.66,5.71-10.92,14.59-10.92h12.71V266.81c0-6.65-4.18-10.66-11.35-10.66-7,0-11.77,4.09-11.94,10.15v.34Zm22.1,11.69h-2c-1.88,0-4.18,1.19-4.18,6.31,0,4.61.42,6,1.87,6,1.79,0,4.27-3.66,4.27-9.38Z" transform="translate(-6.55 -170.82)"/>
      <path class="cls-1" d="M340.46,290.19C332.44,296.25,325,298,316,298c-15.87,0-26.87-6.31-26.87-21.5,0-11.86,9.21-23.71,29.69-23.71,12.71,0,20,5.29,20,14.07,0,5.72-3.84,10.07-10.16,10.07-5.8,0-9.72-3.92-9.72-9.3,0-5,3.67-8.87,9.21-8.87,4.95,0,8.28,3.24,8.28,8h1.19v-.26c-.17-6.4-5.46-10.75-12.37-10.75-8.53,0-13.65,6.57-13.65,20.22,0,12.46,4.44,18.94,12.88,18.94,4.78,0,9.56-1.71,15.19-5.89Z" transform="translate(-6.55 -170.82)"/>
      <path class="cls-1" d="M369.8,237V254H376v1.36H369.8v29.18c0,4.77,1.2,7.33,3.42,7.33,1.62,0,3.15-1.45,3.15-4.26a7.88,7.88,0,0,0-2-5.12l1-.68a8.56,8.56,0,0,1,2.14,5.8c0,7.93-7.68,10.32-14.59,10.32-10.58,0-15.61-4.69-15.61-14.5V255.38h-4.78V254h4.78c10.92,0,21.24-2.73,21.24-17.07Z" transform="translate(-6.55 -170.82)"/>
    </g>
    <g>
      <path class="cls-2" d="M176,224.11c-8,6.06-15.46,7.77-24.51,7.77-15.88,0-26.9-6.32-26.9-21.52,0-11.87,9.22-23.75,29.72-23.75,12.72,0,20.07,5.3,20.07,14.1,0,5.72-3.84,10.07-10.16,10.07-5.81,0-9.74-3.92-9.74-9.3,0-5,3.67-8.89,9.22-8.89,5,0,8.29,3.25,8.29,8h1.19v-.26c-.17-6.4-5.46-10.76-12.38-10.76-8.54,0-13.66,6.58-13.66,20.24,0,12.47,4.44,19,12.89,19,4.78,0,9.57-1.7,15.2-5.89Z" transform="translate(-6.55 -170.82)"/>
      <path class="cls-2" d="M236.82,207.2c0,15.46-11.27,24.68-30,24.68-13.58,0-26.56-6.32-26.56-21.52,0-11.87,8.11-23.75,29.72-23.75C221.71,186.61,236.82,191.91,236.82,207.2Zm-33,3.16c0,18.87,2,20.24,4.36,20.24,3.33,0,5.12-4.53,5.12-23.66,0-16.82-2.05-19-4.87-19C205.22,187.9,203.77,191.06,203.77,210.36Z" transform="translate(-6.55 -170.82)"/>
      <path class="cls-2" d="M242.72,202.41a9.11,9.11,0,0,1-2.13-5.8c0-6,5.38-10,13.49-10,7.43,0,13.32,4.45,13.32,14.27v8.71h1.2V205c0-14,8.71-18.19,17.25-18.19,8.88,0,14.26,5.12,14.26,14.34v20.59c0,3,1.11,4.09,2.39,4.09,1.54,0,2.82-1.36,2.82-4a7.51,7.51,0,0,0-2-5.29l1-.77a9.58,9.58,0,0,1,2.14,6.06c0,5.55-5.13,10.08-14.44,10.08-8.79,0-14.6-4.19-14.6-14.35V199.6c0-4.1-.85-5.64-2.65-5.64-2.3,0-5,3-5,10.85v20.75c0,1.79.86,2.9,2.4,2.82a2.91,2.91,0,0,0,1.62-.43l.43.94c-2.82,1.71-6.84,3-13.33,3-10.67,0-14.6-5.89-14.6-14.61,0-5,1.36-13.66,1.36-17.59,0-4.61-1-7-2.9-7-1.71,0-3,1.45-3,3.93a7.54,7.54,0,0,0,1.88,5Z" transform="translate(-6.55 -170.82)"/>
      <path class="cls-2" d="M334.19,170.82V187.9h6.15v1.36h-6.15v29.21c0,4.78,1.2,7.34,3.42,7.34,1.62,0,3.16-1.45,3.16-4.27a7.9,7.9,0,0,0-2-5.12l1-.68a8.57,8.57,0,0,1,2.13,5.8c0,8-7.68,10.34-14.6,10.34-10.59,0-15.63-4.7-15.63-14.52v-28.1H307V187.9h4.78c10.93,0,21.27-2.74,21.27-17.08Z" transform="translate(-6.55 -170.82)"/>
      <path class="cls-2" d="M351.88,200.54a7.4,7.4,0,0,1,7.68-7.69c4.78,0,7.94,3.33,7.94,8.28,0,5.13-3.58,8.54-8.88,8.54-5.46,0-9.14-3.58-9.14-9,0-9.05,7.78-14,28-14,13.32,0,20.24,5.81,20.24,17,0,3.25-1.11,9.91-1.11,15.12,0,4.78,1,7.08,3.07,7.08,1.62,0,2.73-1.7,2.73-4.27a7.33,7.33,0,0,0-2-5.12l1-.68a9.55,9.55,0,0,1,2.14,5.8c0,8-6.66,10.34-13.15,10.34-8.88,0-14.09-4.1-14.09-17.08v-2.56h-1.2v2.56c0,13-11.1,17.08-16.74,17.08-7.43,0-11.78-3.67-11.78-9.91,0-6.66,5.72-10.93,14.6-10.93H374V200.71C374,194,369.81,190,362.64,190c-7,0-11.79,4.1-12,10.16v.35ZM374,212.24h-2c-1.88,0-4.18,1.19-4.18,6.32,0,4.61.42,6,1.87,6,1.8,0,4.27-3.67,4.27-9.39Z" transform="translate(-6.55 -170.82)"/>
      <path class="cls-2" d="M458.89,224.11c-8,6.06-15.46,7.77-24.51,7.77-15.89,0-26.9-6.32-26.9-21.52,0-11.87,9.22-23.75,29.72-23.75,12.72,0,20.07,5.3,20.07,14.1,0,5.72-3.85,10.07-10.17,10.07-5.8,0-9.73-3.92-9.73-9.3,0-5,3.67-8.89,9.22-8.89,5,0,8.29,3.25,8.29,8h1.19v-.26c-.17-6.4-5.46-10.76-12.38-10.76-8.54,0-13.67,6.58-13.67,20.24,0,12.47,4.44,19,12.9,19,4.78,0,9.56-1.7,15.2-5.89Z" transform="translate(-6.55 -170.82)"/>
      <path class="cls-2" d="M488.27,170.82V187.9h6.15v1.36h-6.15v29.21c0,4.78,1.2,7.34,3.42,7.34,1.62,0,3.16-1.45,3.16-4.27a7.93,7.93,0,0,0-2-5.12l1-.68a8.58,8.58,0,0,1,2.14,5.8c0,8-7.69,10.34-14.61,10.34-10.59,0-15.63-4.7-15.63-14.52v-28.1H461V187.9h4.78c10.93,0,21.27-2.74,21.27-17.08Z" transform="translate(-6.55 -170.82)"/>
    </g>
    <g>
      <path class="cls-3" d="M158.46,254.77c-5.49,4.15-10.57,5.32-16.76,5.32-10.86,0-18.39-4.33-18.39-14.72,0-8.12,6.3-16.23,20.32-16.23,8.7,0,13.72,3.62,13.72,9.63a6.58,6.58,0,0,1-6.95,6.89c-4,0-6.66-2.68-6.66-6.36a6,6,0,0,1,6.31-6.08,5.28,5.28,0,0,1,5.66,5.49h.82v-.17c-.11-4.38-3.73-7.36-8.47-7.36-5.83,0-9.34,4.5-9.34,13.84,0,8.53,3,13,8.82,13,3.27,0,6.54-1.16,10.39-4Z" transform="translate(-6.55 -170.82)"/>
      <path class="cls-3" d="M200,243.21c0,10.57-7.71,16.88-20.5,16.88-9.28,0-18.16-4.33-18.16-14.72,0-8.12,5.55-16.23,20.32-16.23C189.7,229.14,200,232.76,200,243.21Zm-22.6,2.16c0,12.91,1.4,13.84,3,13.84,2.28,0,3.5-3.09,3.5-16.18,0-11.5-1.4-13-3.33-13C178.43,230,177.44,232.17,177.44,245.37Z" transform="translate(-6.55 -170.82)"/>
      <path class="cls-3" d="M204.07,239.94a6.27,6.27,0,0,1-1.46-4c0-4.09,3.68-6.83,9.23-6.83,5.08,0,9.11,3,9.11,9.75v6h.81v-3.15c0-9.58,6-12.44,11.8-12.44,6.07,0,9.75,3.51,9.75,9.81v14.08c0,2,.76,2.8,1.64,2.8,1.05,0,1.92-.93,1.92-2.74a5.11,5.11,0,0,0-1.34-3.62l.7-.53a6.55,6.55,0,0,1,1.46,4.15c0,3.79-3.5,6.89-9.87,6.89-6,0-10-2.87-10-9.81V238c0-2.8-.59-3.85-1.81-3.85-1.58,0-3.45,2-3.45,7.41v14.19c0,1.23.59,2,1.64,1.93a2,2,0,0,0,1.11-.29l.29.64c-1.93,1.17-4.67,2-9.11,2-7.3,0-10-4-10-10,0-3.45.94-9.34.94-12,0-3.15-.7-4.79-2-4.79s-2,1-2,2.69a5.15,5.15,0,0,0,1.28,3.44Z" transform="translate(-6.55 -170.82)"/>
      <path class="cls-3" d="M266.61,218.33V230h4.21V231h-4.21v20c0,3.27.82,5,2.34,5,1.11,0,2.16-1,2.16-2.92a5.39,5.39,0,0,0-1.34-3.5l.7-.47a5.88,5.88,0,0,1,1.46,4c0,5.43-5.26,7.07-10,7.07-7.24,0-10.68-3.22-10.68-9.93V231H248V230h3.27c7.47,0,14.54-1.87,14.54-11.68Z" transform="translate(-6.55 -170.82)"/>
      <path class="cls-3" d="M278.7,238.65A5.06,5.06,0,0,1,284,233.4c3.27,0,5.43,2.28,5.43,5.66s-2.45,5.84-6.07,5.84a5.87,5.87,0,0,1-6.25-6.19c0-6.19,5.31-9.57,19.15-9.57,9.11,0,13.84,4,13.84,11.62,0,2.22-.76,6.77-.76,10.33,0,3.27.7,4.85,2.1,4.85,1.11,0,1.87-1.17,1.87-2.92a5,5,0,0,0-1.34-3.5l.7-.47a6.51,6.51,0,0,1,1.46,4c0,5.43-4.55,7.07-9,7.07-6.08,0-9.64-2.81-9.64-11.68v-1.76h-.82v1.76c0,8.87-7.59,11.68-11.44,11.68-5.08,0-8.06-2.51-8.06-6.78,0-4.55,3.91-7.47,10-7.47h8.7v-7.07c0-4.55-2.87-7.3-7.77-7.3s-8.06,2.8-8.18,6.95v.23Zm15.13,8h-1.35c-1.28,0-2.86.82-2.86,4.33,0,3.15.29,4.08,1.29,4.08,1.22,0,2.92-2.51,2.92-6.42Z" transform="translate(-6.55 -170.82)"/>
      <path class="cls-3" d="M351.87,254.77c-5.49,4.15-10.57,5.32-16.76,5.32-10.86,0-18.39-4.33-18.39-14.72,0-8.12,6.31-16.23,20.32-16.23,8.7,0,13.72,3.62,13.72,9.63a6.57,6.57,0,0,1-6.95,6.89c-4,0-6.65-2.68-6.65-6.36a6,6,0,0,1,6.3-6.08,5.29,5.29,0,0,1,5.67,5.49H350v-.17c-.12-4.38-3.74-7.36-8.47-7.36-5.84,0-9.35,4.5-9.35,13.84,0,8.53,3,13,8.82,13,3.27,0,6.54-1.16,10.4-4Z" transform="translate(-6.55 -170.82)"/>
      <path class="cls-3" d="M372,218.33V230h4.21V231H372v20c0,3.27.82,5,2.34,5,1.11,0,2.16-1,2.16-2.92a5.39,5.39,0,0,0-1.34-3.5l.7-.47a5.88,5.88,0,0,1,1.46,4c0,5.43-5.26,7.07-10,7.07-7.24,0-10.68-3.22-10.68-9.93V231h-3.27V230h3.27c7.47,0,14.54-1.87,14.54-11.68Z" transform="translate(-6.55 -170.82)"/>
    </g>
  </g>
</svg>
