<svg id="Layer_1" data-name="Layer 1" xmlns="http://www.w3.org/2000/svg" width="473.1" height="153.59" viewBox="0 0 473.1 153.59">
  <defs>
    <style>
      .cls-1 {
        fill: #282828;
      }

      .cls-2 {
        fill: #455a60;
      }

      .cls-3 {
        fill: #fff;
      }
    </style>
  </defs>
  <title>gallery</title>
  <g>
    <g>
      <path class="cls-1" d="M47,288.65c12.11,0,18.68,5.21,18.68,14.93,0,9.9-9.38,15.27-26.7,15.27-10.83,0-15.35-2-15.35-5.88,0-3,2.73-5.55,10.15-5.55v-1.19H29.08c-7.85,0-13.06-3.24-13.06-10,0-7.85,8.36-12.2,18.26-13.23v-.77c-9.9-.68-16.47-5.88-16.47-13.22,0-10,8.62-15.95,23-15.95a31.17,31.17,0,0,1,11.43,2.13c6.4,0,11.86-4.35,11.86-10.92H62.86c0,4.69-2.9,7.68-7.34,7.68a7.93,7.93,0,0,1-8.36-8.36c0-5.12,3.67-8.53,9.13-8.53,5.29,0,9,3.67,9,9.21,0,6.31-4.27,11.18-10.84,11.94,4.18,2.31,7.17,5.72,7.17,10.67,0,10.15-7.76,16.55-22.1,16.55-4.94,0-7.08,1.11-7.08,2.9,0,1.45,1.37,2.3,3.67,2.3Zm-13.22,20c-6.49,0-8.79,1.87-8.79,4.35,0,3.07,4.27,4.69,14.59,4.69,11.26,0,15.87-2.13,15.87-5s-2.56-4-7-4ZM36.16,269c0,12,1.79,13.57,3.32,13.57,2.22,0,3.76-4.78,3.76-15.87,0-10.15-1.71-12.71-3.59-12.71C37.52,254,36.16,257.26,36.16,269Z" transform="translate(-16.02 -165.26)"/>
      <path class="cls-1" d="M73.86,266.64A7.4,7.4,0,0,1,81.54,259c4.78,0,7.94,3.33,7.94,8.28,0,5.12-3.59,8.53-8.88,8.53-5.46,0-9.12-3.58-9.12-9,0-9.05,7.76-14,28-14,13.31,0,20.22,5.8,20.22,17,0,3.25-1.11,9.9-1.11,15.1,0,4.78,1,7.08,3.07,7.08,1.62,0,2.73-1.7,2.73-4.26a7.33,7.33,0,0,0-2-5.12l1-.68a9.54,9.54,0,0,1,2.13,5.8c0,7.93-6.65,10.32-13.14,10.32-8.87,0-14.07-4.09-14.07-17.06v-2.56h-1.2v2.56c0,13-11.09,17.06-16.72,17.06-7.42,0-11.77-3.67-11.77-9.89,0-6.66,5.72-10.92,14.59-10.92H96V266.81c0-6.65-4.18-10.66-11.35-10.66-7,0-11.77,4.09-11.94,10.15v.34ZM96,278.33H94c-1.88,0-4.18,1.19-4.18,6.31,0,4.61.42,6,1.87,6,1.8,0,4.27-3.66,4.27-9.38Z" transform="translate(-16.02 -165.26)"/>
      <path class="cls-1" d="M128.38,248a8.39,8.39,0,0,1-2.14-6.06c0-6.06,6.66-10.49,15.79-10.49s14.07,4.6,14.07,13.22l-.85,40.1c-.17,6.06,1.54,7.16,2.9,7.16s2.73-1.62,2.73-4.26a7.47,7.47,0,0,0-1.88-5l.94-.77a9.11,9.11,0,0,1,2.13,5.8c0,5.71-5.46,10.32-15.35,10.32-9.39,0-14.42-4.69-14.42-13.31l.85-41.89c0-2.81-1.11-4.52-2.9-4.52s-2.81,1.45-2.81,3.67a7.45,7.45,0,0,0,2,5.29Z" transform="translate(-16.02 -165.26)"/>
      <path class="cls-1" d="M165.14,248A8.42,8.42,0,0,1,163,241.9c0-6.06,6.66-10.49,15.78-10.49s14.08,4.6,14.08,13.22l-.85,40.1c-.17,6.06,1.53,7.16,2.9,7.16s2.73-1.62,2.73-4.26a7.47,7.47,0,0,0-1.88-5l.94-.77a9.11,9.11,0,0,1,2.13,5.8c0,5.71-5.46,10.32-15.35,10.32-9.39,0-14.42-4.69-14.42-13.31l.85-41.89c0-2.81-1.11-4.52-2.9-4.52s-2.81,1.45-2.81,3.67a7.45,7.45,0,0,0,2,5.29Z" transform="translate(-16.02 -165.26)"/>
      <path class="cls-1" d="M253.19,290.19c-8,6.06-15.45,7.76-24.49,7.76-16.81,0-26.87-8.36-26.87-21.75,0-14.68,10.58-23.46,28.15-23.46,14.85,0,22.86,6.22,22.86,17.91,0,.68-.25,1.2-1.1,1.2H224.35v.25c0,17.15,2.73,22.78,12.88,22.78,4.78,0,9.56-1.54,15.19-5.72Zm-23.81-19.54c2.39,0,3.07-.77,3.07-3.67,0-8.7-1.45-13-4.09-13s-3.92,5.71-4,16.63Z" transform="translate(-16.02 -165.26)"/>
      <path class="cls-1" d="M259.5,268.86a9.15,9.15,0,0,1-2.48-6.14c0-6,5.46-10,13.57-10,8.36,0,13.31,5.37,13.31,14.24v8.71h1.19v-4.61c0-11.69,6.06-17.92,15.44-17.92,6.74,0,11.18,4.35,11.18,10.84,0,6.23-4.27,10.32-10.75,10.32-5.8,0-10.24-3.92-10.24-9.64,0-5.29,3.75-9.13,9.81-9.13v-1.19c-8.53,0-14.24,5.8-14.24,16.55v20.73c0,1.79.85,2.81,2.38,2.81a7.72,7.72,0,0,0,3.33-.85l.51.94c-3.58,2.22-9.3,3.41-15.1,3.41-9.13,0-14.59-5.46-14.59-14.59,0-5,1.37-14.93,1.37-18.85s-.94-5.72-2.9-5.72-3.07,1.54-3.07,3.93a8.83,8.83,0,0,0,2.22,5.37Z" transform="translate(-16.02 -165.26)"/>
      <path class="cls-1" d="M370.66,254v1.19h-.6c-4.44,0-7.08,3.41-9.64,11.18L350.1,296.67c-5.81,16.89-9.47,21.84-16.89,21.84-5.64,0-9.56-3.75-9.56-9.3a9.16,9.16,0,0,1,9-9.3c5.21,0,8.62,3.25,8.62,8.19a8.14,8.14,0,0,1-8.1,8c-4.19,0-7.17-2.73-7.17-6.91h-1.2c0,4.87,3.42,8.11,8.37,8.11,6.48,0,9.81-4.27,15.52-20.65H334.4a1.48,1.48,0,0,1-1.45-1l-12.54-34.13c-1.54-4.18-3.5-6.31-7.17-6.31h-.68V254h35.57v1.19h-.59c-3.33,0-4.61,2.73-3.16,6.74l7.85,22.18H353L357.69,270c3.07-9.3.94-14.76-5.8-14.76h-.68V254Z" transform="translate(-16.02 -165.26)"/>
    </g>
    <g>
      <path class="cls-2" d="M165.08,222.57c12.13,0,18.7,5.21,18.7,15,0,9.9-9.39,15.28-26.73,15.28-10.84,0-15.37-2.05-15.37-5.89,0-3,2.73-5.55,10.16-5.55v-1.2h-4.69c-7.86,0-13.07-3.24-13.07-10,0-7.86,8.37-12.21,18.28-13.24v-.77c-9.91-.68-16.49-5.89-16.49-13.23,0-10,8.63-16,23-16a31.3,31.3,0,0,1,11.44,2.13c6.41,0,11.87-4.35,11.87-10.93H181c0,4.7-2.91,7.69-7.35,7.69a7.94,7.94,0,0,1-8.37-8.37c0-5.13,3.67-8.54,9.14-8.54,5.3,0,9,3.67,9,9.22,0,6.32-4.27,11.19-10.85,12,4.19,2.3,7.18,5.72,7.18,10.67,0,10.17-7.78,16.57-22.12,16.57-5,0-7.09,1.11-7.09,2.9,0,1.46,1.36,2.31,3.67,2.31Zm-13.24,20c-6.49,0-8.79,1.88-8.79,4.36,0,3.07,4.27,4.7,14.6,4.7,11.27,0,15.89-2.14,15.89-5s-2.57-4-7-4Zm2.39-39.62c0,12,1.8,13.58,3.34,13.58,2.22,0,3.75-4.79,3.75-15.89,0-10.16-1.7-12.72-3.58-12.72C155.6,187.9,154.23,191.14,154.23,202.93Z" transform="translate(-16.02 -165.26)"/>
      <path class="cls-2" d="M192,200.54a7.4,7.4,0,0,1,7.68-7.69c4.79,0,8,3.33,8,8.28,0,5.13-3.59,8.54-8.89,8.54-5.46,0-9.13-3.58-9.13-9,0-9.05,7.77-14,28-14,13.32,0,20.24,5.81,20.24,17,0,3.25-1.11,9.91-1.11,15.12,0,4.78,1,7.08,3.07,7.08,1.63,0,2.74-1.7,2.74-4.27a7.34,7.34,0,0,0-2-5.12l1-.68a9.54,9.54,0,0,1,2.13,5.8c0,8-6.66,10.34-13.15,10.34-8.88,0-14.09-4.1-14.09-17.08v-2.56h-1.2v2.56c0,13-11.1,17.08-16.74,17.08-7.43,0-11.78-3.67-11.78-9.91,0-6.66,5.72-10.93,14.6-10.93h12.73V200.71c0-6.67-4.19-10.68-11.36-10.68-7,0-11.79,4.1-12,10.16v.35Zm22.12,11.7h-2c-1.88,0-4.18,1.19-4.18,6.32,0,4.61.43,6,1.88,6,1.79,0,4.27-3.67,4.27-9.39Z" transform="translate(-16.02 -165.26)"/>
      <path class="cls-2" d="M246.57,181.83a8.39,8.39,0,0,1-2.14-6.06c0-6.06,6.66-10.51,15.8-10.51s14.09,4.62,14.09,13.24l-.85,40.14c-.17,6.06,1.53,7.17,2.9,7.17s2.73-1.62,2.73-4.27a7.49,7.49,0,0,0-1.88-5l.94-.77a9.13,9.13,0,0,1,2.14,5.8c0,5.73-5.47,10.34-15.37,10.34-9.4,0-14.44-4.7-14.44-13.32l.86-41.94c0-2.82-1.11-4.52-2.91-4.52s-2.81,1.45-2.81,3.67a7.45,7.45,0,0,0,2,5.29Z" transform="translate(-16.02 -165.26)"/>
      <path class="cls-2" d="M283.38,181.83a8.39,8.39,0,0,1-2.14-6.06c0-6.06,6.66-10.51,15.8-10.51s14.09,4.62,14.09,13.24l-.85,40.14c-.17,6.06,1.54,7.17,2.9,7.17s2.74-1.62,2.74-4.27a7.49,7.49,0,0,0-1.88-5l.94-.77a9.2,9.2,0,0,1,2.13,5.8c0,5.73-5.46,10.34-15.37,10.34-9.4,0-14.43-4.7-14.43-13.32l.85-41.94c0-2.82-1.11-4.52-2.9-4.52s-2.82,1.45-2.82,3.67a7.45,7.45,0,0,0,2,5.29Z" transform="translate(-16.02 -165.26)"/>
      <path class="cls-2" d="M371.52,224.11c-8,6.06-15.46,7.77-24.51,7.77-16.83,0-26.91-8.37-26.91-21.78,0-14.69,10.59-23.49,28.19-23.49,14.86,0,22.88,6.24,22.88,17.94,0,.68-.25,1.2-1.11,1.2H342.65V206c0,17.17,2.73,22.8,12.9,22.8,4.78,0,9.56-1.53,15.2-5.72Zm-23.83-19.56c2.39,0,3.07-.77,3.07-3.67,0-8.71-1.45-13-4.1-13s-3.92,5.72-4,16.65Z" transform="translate(-16.02 -165.26)"/>
      <path class="cls-2" d="M377.84,202.76a9.17,9.17,0,0,1-2.48-6.15c0-6,5.47-10,13.58-10,8.37,0,13.33,5.39,13.33,14.27v8.71h1.19V205c0-11.7,6.07-17.94,15.46-17.94,6.75,0,11.19,4.36,11.19,10.85,0,6.23-4.27,10.33-10.76,10.33-5.81,0-10.25-3.93-10.25-9.65,0-5.29,3.76-9.14,9.82-9.14v-1.19c-8.54,0-14.26,5.8-14.26,16.57v20.75c0,1.79.85,2.82,2.39,2.82a7.63,7.63,0,0,0,3.33-.86l.51.94c-3.59,2.22-9.31,3.42-15.11,3.42-9.14,0-14.61-5.47-14.61-14.61,0-5,1.37-14.94,1.37-18.87s-.94-5.72-2.91-5.72-3.07,1.54-3.07,3.93a8.88,8.88,0,0,0,2.22,5.38Z" transform="translate(-16.02 -165.26)"/>
      <path class="cls-2" d="M489.13,187.9v1.19h-.6c-4.44,0-7.09,3.42-9.65,11.19L468.54,230.6c-5.8,16.91-9.48,21.86-16.91,21.86-5.63,0-9.56-3.76-9.56-9.31a9.17,9.17,0,0,1,9.05-9.31c5.21,0,8.63,3.25,8.63,8.2a8.15,8.15,0,0,1-8.12,8c-4.18,0-7.17-2.73-7.17-6.92h-1.2c0,4.87,3.42,8.12,8.37,8.12,6.49,0,9.82-4.27,15.55-20.67H452.83a1.49,1.49,0,0,1-1.45-1l-12.56-34.16c-1.53-4.18-3.5-6.32-7.17-6.32H431V187.9h35.61v1.19H466c-3.33,0-4.61,2.73-3.16,6.75l7.86,22.2h.77l4.69-14.17c3.08-9.31.94-14.78-5.8-14.78h-.69V187.9Z" transform="translate(-16.02 -165.26)"/>
    </g>
    <g>
      <path class="cls-3" d="M151.57,253.72c8.29,0,12.79,3.56,12.79,10.22s-6.43,10.45-18.28,10.45c-7.42,0-10.51-1.4-10.51-4,0-2,1.87-3.79,7-3.79v-.82h-3.21c-5.38,0-8.94-2.22-8.94-6.83,0-5.37,5.72-8.35,12.5-9.05v-.53c-6.78-.47-11.27-4-11.27-9.05,0-6.83,5.9-10.92,15.71-10.92a21.38,21.38,0,0,1,7.82,1.46c4.38,0,8.12-3,8.12-7.48h-.82c0,3.22-2,5.26-5,5.26a5.42,5.42,0,0,1-5.72-5.72c0-3.51,2.51-5.84,6.24-5.84a5.9,5.9,0,0,1,6.14,6.3,8,8,0,0,1-7.42,8.18c2.86,1.58,4.91,3.91,4.91,7.3,0,6.95-5.32,11.33-15.13,11.33-3.39,0-4.85.76-4.85,2,0,1,.94,1.58,2.51,1.58Zm-9,13.67c-4.44,0-6,1.28-6,3,0,2.11,2.92,3.22,10,3.22,7.71,0,10.86-1.46,10.86-3.45s-1.75-2.74-4.79-2.74Zm1.63-27.1c0,8.23,1.23,9.29,2.28,9.29,1.52,0,2.57-3.28,2.57-10.87,0-7-1.17-8.7-2.45-8.7C145.09,230,144.15,232.23,144.15,240.29Z" transform="translate(-16.02 -165.26)"/>
      <path class="cls-3" d="M170,238.65a5.05,5.05,0,0,1,5.25-5.25c3.27,0,5.43,2.28,5.43,5.66s-2.45,5.84-6.07,5.84a5.87,5.87,0,0,1-6.25-6.19c0-6.19,5.32-9.57,19.15-9.57,9.11,0,13.84,4,13.84,11.62,0,2.22-.75,6.77-.75,10.33,0,3.27.7,4.85,2.1,4.85,1.11,0,1.87-1.17,1.87-2.92a5,5,0,0,0-1.35-3.5l.7-.47a6.51,6.51,0,0,1,1.46,4c0,5.43-4.55,7.07-9,7.07-6.07,0-9.63-2.81-9.63-11.68v-1.76h-.82v1.76c0,8.87-7.59,11.68-11.45,11.68-5.08,0-8.06-2.51-8.06-6.78,0-4.55,3.92-7.47,10-7.47h8.7v-7.07c0-4.55-2.86-7.3-7.77-7.3s-8,2.8-8.17,6.95v.23Zm15.12,8h-1.34c-1.29,0-2.86.82-2.86,4.33,0,3.15.29,4.08,1.28,4.08,1.23,0,2.92-2.51,2.92-6.42Z" transform="translate(-16.02 -165.26)"/>
      <path class="cls-3" d="M207.28,225.87a5.78,5.78,0,0,1-1.46-4.15c0-4.15,4.56-7.18,10.81-7.18s9.63,3.15,9.63,9.05L225.68,251c-.12,4.15,1,4.91,2,4.91s1.87-1.11,1.87-2.92a5.15,5.15,0,0,0-1.28-3.44l.64-.53a6.27,6.27,0,0,1,1.46,4c0,3.91-3.74,7.07-10.51,7.07-6.43,0-9.87-3.22-9.87-9.11l.58-28.68c0-1.92-.76-3.09-2-3.09s-1.93,1-1.93,2.51a5.11,5.11,0,0,0,1.34,3.62Z" transform="translate(-16.02 -165.26)"/>
      <path class="cls-3" d="M232.45,225.87a5.78,5.78,0,0,1-1.46-4.15c0-4.15,4.56-7.18,10.81-7.18s9.63,3.15,9.63,9.05L250.85,251c-.12,4.15,1.05,4.91,2,4.91s1.87-1.11,1.87-2.92a5.15,5.15,0,0,0-1.28-3.44l.64-.53a6.27,6.27,0,0,1,1.46,4c0,3.91-3.74,7.07-10.51,7.07-6.43,0-9.87-3.22-9.87-9.11l.58-28.68c0-1.92-.76-3.09-2-3.09s-1.93,1-1.93,2.51a5.11,5.11,0,0,0,1.34,3.62Z" transform="translate(-16.02 -165.26)"/>
      <path class="cls-3" d="M292.72,254.77c-5.49,4.15-10.57,5.32-16.76,5.32-11.51,0-18.4-5.73-18.4-14.89,0-10,7.24-16.06,19.27-16.06,10.16,0,15.65,4.26,15.65,12.26,0,.47-.17.82-.76.82H273v.17c0,11.74,1.87,15.59,8.82,15.59,3.27,0,6.54-1.05,10.39-3.91Zm-16.3-13.37c1.64,0,2.11-.53,2.11-2.51,0-6-1-8.88-2.81-8.88S273,233.92,273,241.4Z" transform="translate(-16.02 -165.26)"/>
      <path class="cls-3" d="M297,240.17a6.24,6.24,0,0,1-1.69-4.2c0-4.09,3.73-6.83,9.28-6.83,5.72,0,9.11,3.68,9.11,9.75v6h.82v-3.15c0-8,4.14-12.26,10.57-12.26,4.61,0,7.65,3,7.65,7.41,0,4.27-2.92,7.07-7.36,7.07-4,0-7-2.69-7-6.6,0-3.62,2.57-6.25,6.72-6.25v-.81c-5.84,0-9.75,4-9.75,11.32v14.19c0,1.23.58,1.93,1.63,1.93a5.28,5.28,0,0,0,2.28-.58l.35.64c-2.45,1.52-6.37,2.34-10.34,2.34-6.25,0-10-3.74-10-10,0-3.45.93-10.22.93-12.91s-.64-3.91-2-3.91-2.11,1.05-2.11,2.69a6.1,6.1,0,0,0,1.52,3.68Z" transform="translate(-16.02 -165.26)"/>
      <path class="cls-3" d="M373.13,230v.82h-.41c-3,0-4.84,2.34-6.6,7.65l-7.06,20.73c-4,11.56-6.48,15-11.56,15-3.86,0-6.54-2.57-6.54-6.37a6.26,6.26,0,0,1,6.18-6.36c3.57,0,5.9,2.22,5.9,5.61a5.56,5.56,0,0,1-5.54,5.48,4.58,4.58,0,0,1-4.91-4.73h-.82a5.36,5.36,0,0,0,5.73,5.55c4.43,0,6.71-2.92,10.62-14.13h-9.81a1,1,0,0,1-1-.7l-8.58-23.36c-1.06-2.86-2.4-4.32-4.91-4.32h-.47V230h24.35v.82h-.41c-2.27,0-3.15,1.87-2.16,4.61l5.38,15.19H361l3.21-9.7c2.11-6.36.65-10.1-4-10.1h-.46V230Z" transform="translate(-16.02 -165.26)"/>
    </g>
  </g>
</svg>
