<svg id="Layer_1" data-name="Layer 1" xmlns="http://www.w3.org/2000/svg" width="785.94" height="134.4" viewBox="0 0 785.94 134.4">
  <defs>
    <style>
      .cls-1 {
        fill: #282828;
      }

      .cls-2 {
        fill: #455a60;
      }

      .cls-3 {
        fill: #fff;
      }
    </style>
  </defs>
  <title>merchandise</title>
  <g>
    <g>
      <path class="cls-1" d="M-85.41,270.23c0-11.44,6.57-17.49,17.49-17.49,8.87,0,14.25,5.29,14.25,14.5v20.22c0,3,1.11,4.43,2.39,4.43,1.53,0,2.81-1.36,2.81-4a7.74,7.74,0,0,0-2-5.37l1-.68a9.57,9.57,0,0,1,2.14,6.05c0,5.55-5.12,10.07-14.42,10.07-9.81,0-14.59-4.69-14.59-14.33V265.53c0-3.92-1.11-5.46-3-5.46-2.73,0-4.94,3.24-4.94,10.16v22.26c0,1.28.51,2,1.53,2A4.06,4.06,0,0,0-79.95,293l.85.86c-1,1-4.43,4.09-14,4.09-9.3,0-13.73-4.69-13.73-14.33V265.7c0-4.09-.86-5.63-2.65-5.63-2.3,0-5,3-5,10.84v21.58c0,1.28.51,2,1.54,2a4.06,4.06,0,0,0,2.72-1.45l.86.86c-1,1-4.44,4.09-14,4.09-9.9,0-14.68-4.78-14.68-14.59,0-5,1.37-13.48,1.37-17.4,0-6.06-1.54-7.17-2.9-7.17s-2.73,1.62-2.73,4.27a7.54,7.54,0,0,0,1.87,5l-.93.77a9.13,9.13,0,0,1-2.14-5.8c0-5.72,4-10.32,13.31-10.32,7.42,0,13.31,4.43,13.31,14.24v7.77h1.19v-3.67c0-14,9-18.34,15.87-18.34,8.11,0,13.23,4.18,13.23,13v9.05h1.19Z" transform="translate(143.51 -163.56)"/>
      <path class="cls-1" d="M7.92,290.19C-.1,296.25-7.52,298-16.56,298c-16.81,0-26.88-8.36-26.88-21.75,0-14.68,10.58-23.46,28.15-23.46,14.85,0,22.87,6.22,22.87,17.91,0,.68-.26,1.2-1.11,1.2H-20.92v.25c0,17.15,2.73,22.78,12.89,22.78,4.77,0,9.55-1.54,15.18-5.72Zm-23.8-19.54c2.39,0,3.07-.77,3.07-3.67,0-8.7-1.45-13-4.1-13s-3.92,5.71-4,16.63Z" transform="translate(143.51 -163.56)"/>
      <path class="cls-1" d="M14.23,268.86a9.13,9.13,0,0,1-2.47-6.14c0-6,5.46-10,13.56-10,8.36,0,13.31,5.37,13.31,14.24v8.71h1.19v-4.61c0-11.69,6.06-17.92,15.45-17.92,6.74,0,11.17,4.35,11.17,10.84,0,6.23-4.26,10.32-10.75,10.32-5.8,0-10.24-3.92-10.24-9.64,0-5.29,3.76-9.13,9.82-9.13v-1.19c-8.54,0-14.25,5.8-14.25,16.55v20.73c0,1.79.85,2.81,2.39,2.81a7.68,7.68,0,0,0,3.32-.85l.52.94C43.66,296.76,38,298,32.15,298c-9.13,0-14.59-5.46-14.59-14.59,0-5,1.36-14.93,1.36-18.85s-.94-5.72-2.9-5.72S13,260.33,13,262.72a8.83,8.83,0,0,0,2.22,5.37Z" transform="translate(143.51 -163.56)"/>
      <path class="cls-1" d="M119.93,290.19c-8,6.06-15.44,7.76-24.48,7.76-15.87,0-26.88-6.31-26.88-21.5,0-11.86,9.22-23.71,29.69-23.71,12.71,0,20,5.29,20,14.07,0,5.72-3.84,10.07-10.15,10.07-5.8,0-9.73-3.92-9.73-9.3,0-5,3.67-8.87,9.22-8.87,4.94,0,8.27,3.24,8.27,8h1.2v-.26c-.18-6.4-5.46-10.75-12.37-10.75-8.54,0-13.65,6.57-13.65,20.22,0,12.46,4.43,18.94,12.88,18.94,4.77,0,9.55-1.71,15.18-5.89Z" transform="translate(143.51 -163.56)"/>
      <path class="cls-1" d="M124.37,249.67a7.19,7.19,0,0,1-3.16-6.4c0-6.74,6.23-11.61,16.38-11.61,9.38,0,15,5,15,13.23,0,12.37-2.9,13.82-2.9,30.28h1.2v-4.09c0-14,8.7-18.17,17.23-18.17,9.3,0,14.25,5,14.25,14.33v20.39c0,2.64,1.11,4.26,2.56,4.26s2.64-1.36,2.64-4a8.62,8.62,0,0,0-2-5.28l1-.77a10,10,0,0,1,2.14,6.05c0,5.55-5.12,10.07-14.42,10.07-9.81,0-14.59-4.69-14.59-14.33V265.7c0-4.09-.85-5.63-2.64-5.63-3.08,0-4.95,3.76-5.21,10.84v20.56c0,2,.77,3.07,2.31,3.07a3,3,0,0,0,1.62-.51l.51.94c-2.82,1.7-6.83,3-13.31,3-10,0-14.67-4.78-14.59-14.59V244.63c.09-3.24-.94-5.12-2.81-5.12s-3.25,1.45-3.25,3.84a6.28,6.28,0,0,0,2.73,5.38Z" transform="translate(143.51 -163.56)"/>
      <path class="cls-1" d="M199.1,266.64a7.39,7.39,0,0,1,7.68-7.68c4.77,0,7.93,3.33,7.93,8.28,0,5.12-3.58,8.53-8.87,8.53-5.46,0-9.13-3.58-9.13-9,0-9.05,7.76-14,28-14,13.31,0,20.22,5.8,20.22,17,0,3.25-1.11,9.9-1.11,15.1,0,4.78,1,7.08,3.07,7.08,1.62,0,2.73-1.7,2.73-4.26a7.33,7.33,0,0,0-2-5.12l1-.68a9.55,9.55,0,0,1,2.14,5.8c0,7.93-6.66,10.32-13.14,10.32-8.87,0-14.08-4.09-14.08-17.06v-2.56h-1.19v2.56c0,13-11.09,17.06-16.72,17.06-7.43,0-11.78-3.67-11.78-9.89,0-6.66,5.72-10.92,14.59-10.92h12.71V266.81c0-6.65-4.18-10.66-11.34-10.66-7,0-11.78,4.09-11.95,10.15v.34Zm22.09,11.69h-2c-1.88,0-4.18,1.19-4.18,6.31,0,4.61.43,6,1.88,6,1.79,0,4.26-3.66,4.26-9.38Z" transform="translate(143.51 -163.56)"/>
      <path class="cls-1" d="M252.93,268.52a9.14,9.14,0,0,1-2.13-5.8c0-6,5.37-10,13.48-10,7.42,0,13.3,4.43,13.3,14.24v8.71h1.2v-4.61c0-14,8.7-18.17,17.23-18.17,8.87,0,14.25,5.12,14.25,14.33V287.8c0,3,1.11,4.09,2.39,4.09,1.53,0,2.81-1.36,2.81-4a7.46,7.46,0,0,0-2-5.28l1-.77a9.57,9.57,0,0,1,2.14,6.05c0,5.55-5.12,10.07-14.42,10.07-8.79,0-14.59-4.18-14.59-14.33V265.7c0-4.09-.85-5.63-2.64-5.63-2.31,0-5,3-5,10.84v20.73c0,1.79.86,2.9,2.39,2.81A2.89,2.89,0,0,0,284,294l.43.94c-2.82,1.7-6.83,3-13.31,3-10.66,0-14.59-5.88-14.59-14.59,0-5,1.37-13.65,1.37-17.57,0-4.61-1-7-2.9-7-1.71,0-3,1.45-3,3.93a7.49,7.49,0,0,0,1.88,5Z" transform="translate(143.51 -163.56)"/>
      <path class="cls-1" d="M344.55,236.1a39,39,0,0,1,18.09-4.69c9.81,0,14.59,4.26,14.59,13.05,0,9.56-.77,22.69-.77,42.15,0,3.49,1.11,4.94,2.9,4.94s3.07-1.28,3.07-4.43a6.35,6.35,0,0,0-2.56-5.38l.77-.94c.68.43,3,2.22,3,6.4,0,5.55-3.41,10.75-14.41,10.75-9.3,0-14.34-5.54-14.34-16v-3.58h-1.19c0,13.22-5.29,19.62-16.21,19.62-10.15,0-17-8.53-17-21.33,0-14.24,9.9-23.71,24.83-23.71h7.17V240c0-2.73-1.28-4.09-3-4.09a10,10,0,0,0-4.44,1.19Zm7.94,18.09h-2.65c-5.12,0-6.57,4.6-6.57,20.39,0,15.35,1.88,17.57,4.18,17.57,1.88,0,5-3.75,5-13.82Z" transform="translate(143.51 -163.56)"/>
      <path class="cls-1" d="M386.61,268.86a9.64,9.64,0,0,1-2.13-6.06c0-5.54,5.11-10.06,14.41-10.06,10.24,0,14.59,5.11,14.59,14,0,6.57-.68,10.92-.68,17.57,0,6.06,1.54,7.17,2.9,7.17s2.73-1.62,2.73-4.27a7.49,7.49,0,0,0-1.88-5l.94-.77a9.13,9.13,0,0,1,2.14,5.8c0,5.72-6,10.33-15.28,10.33-9.64,0-14.16-5.12-14.16-13.14,0-8.53.69-12.12.69-21.16,0-3-1.11-4.44-2.39-4.44-1.54,0-2.82,1.37-2.82,4a7.51,7.51,0,0,0,2,5.29Zm26.53-29.52c0,5.63-5,9.9-11.77,9.9s-11.78-4.27-11.78-9.9c0-5.46,5-9.64,11.78-9.64S413.14,233.88,413.14,239.34Z" transform="translate(143.51 -163.56)"/>
      <path class="cls-1" d="M425.6,280.46c3.92,10.58,11.26,16.13,17.23,16.13a3.86,3.86,0,0,0,4.18-4.18c0-6.91-22.52-8.62-22.52-24.15,0-9.38,7.93-15.69,19.79-15.69,9.47,0,11.18,3.83,15.1,3.83a2.66,2.66,0,0,0,3-3h1v14.16h-1c-3.25-6.23-6.91-13.56-14.85-13.56a3.38,3.38,0,0,0-3.5,3.58c0,9.9,22.36,8.62,22.36,25.17,0,9.3-6.83,15.18-20.65,15.18-10.92,0-12.8-5.71-17.06-5.71-2,0-3.07,1.7-3.07,5h-1.2V280.46Z" transform="translate(143.51 -163.56)"/>
      <path class="cls-1" d="M523.79,290.19c-8,6.06-15.44,7.76-24.49,7.76-16.8,0-26.87-8.36-26.87-21.75,0-14.68,10.58-23.46,28.15-23.46,14.85,0,22.87,6.22,22.87,17.91,0,.68-.26,1.2-1.11,1.2H495v.25c0,17.15,2.73,22.78,12.88,22.78,4.78,0,9.56-1.54,15.19-5.72ZM500,270.65c2.38,0,3.07-.77,3.07-3.67,0-8.7-1.45-13-4.1-13s-3.92,5.71-4,16.63Z" transform="translate(143.51 -163.56)"/>
    </g>
    <g>
      <path class="cls-2" d="M32.52,204.12c0-11.44,6.58-17.51,17.51-17.51,8.88,0,14.26,5.3,14.26,14.52v20.24c0,3,1.11,4.44,2.39,4.44,1.54,0,2.82-1.36,2.82-4a7.77,7.77,0,0,0-2-5.38l1-.68a9.58,9.58,0,0,1,2.14,6.06c0,5.55-5.13,10.08-14.44,10.08-9.82,0-14.6-4.7-14.6-14.35v-18.1c0-3.93-1.11-5.47-3-5.47-2.73,0-5,3.25-5,10.16v22.29c0,1.28.51,2,1.54,2A4.14,4.14,0,0,0,38,226.93l.85.85c-1,1-4.44,4.1-14,4.1-9.31,0-13.75-4.7-13.75-14.35V199.6c0-4.1-.86-5.64-2.65-5.64-2.31,0-5,3-5,10.85v21.6c0,1.28.51,2,1.54,2a4.1,4.1,0,0,0,2.73-1.45l.85.85c-1,1-4.44,4.1-14,4.1-9.91,0-14.69-4.78-14.69-14.61,0-5,1.37-13.49,1.37-17.42,0-6.06-1.54-7.17-2.91-7.17s-2.73,1.62-2.73,4.27a7.52,7.52,0,0,0,1.88,5l-.94.77A9.17,9.17,0,0,1-25.64,197c0-5.72,4-10.34,13.33-10.34,7.43,0,13.32,4.45,13.32,14.27v7.77H2.2V205c0-14,9-18.37,15.89-18.37,8.11,0,13.24,4.19,13.24,13v9.05h1.19Z" transform="translate(143.51 -163.56)"/>
      <path class="cls-2" d="M126,224.11c-8,6.06-15.46,7.77-24.51,7.77-16.82,0-26.9-8.37-26.9-21.78,0-14.69,10.59-23.49,28.18-23.49,14.86,0,22.89,6.24,22.89,17.94,0,.68-.26,1.2-1.11,1.2H97.1V206c0,17.17,2.73,22.8,12.89,22.8,4.78,0,9.57-1.53,15.2-5.72Zm-23.83-19.56c2.4,0,3.08-.77,3.08-3.67,0-8.71-1.45-13-4.1-13s-3.93,5.72-4,16.65Z" transform="translate(143.51 -163.56)"/>
      <path class="cls-2" d="M132.29,202.76a9.17,9.17,0,0,1-2.48-6.15c0-6,5.46-10,13.58-10,8.37,0,13.32,5.39,13.32,14.27v8.71h1.2V205c0-11.7,6.06-17.94,15.45-17.94,6.75,0,11.19,4.36,11.19,10.85,0,6.23-4.27,10.33-10.76,10.33-5.81,0-10.25-3.93-10.25-9.65,0-5.29,3.76-9.14,9.82-9.14v-1.19c-8.54,0-14.26,5.8-14.26,16.57v20.75c0,1.79.86,2.82,2.39,2.82a7.59,7.59,0,0,0,3.33-.86l.52.94c-3.59,2.22-9.31,3.42-15.12,3.42-9.14,0-14.6-5.47-14.6-14.61,0-5,1.36-14.94,1.36-18.87s-.94-5.72-2.9-5.72-3.08,1.54-3.08,3.93a8.94,8.94,0,0,0,2.22,5.38Z" transform="translate(143.51 -163.56)"/>
      <path class="cls-2" d="M238.1,224.11c-8,6.06-15.45,7.77-24.51,7.77-15.88,0-26.9-6.32-26.9-21.52,0-11.87,9.23-23.75,29.72-23.75,12.73,0,20.07,5.3,20.07,14.1,0,5.72-3.84,10.07-10.16,10.07-5.81,0-9.74-3.92-9.74-9.3,0-5,3.67-8.89,9.23-8.89,4.95,0,8.28,3.25,8.28,8h1.2v-.26c-.17-6.4-5.47-10.76-12.39-10.76-8.54,0-13.66,6.58-13.66,20.24,0,12.47,4.44,19,12.89,19,4.79,0,9.57-1.7,15.21-5.89Z" transform="translate(143.51 -163.56)"/>
      <path class="cls-2" d="M242.55,183.54a7.21,7.21,0,0,1-3.16-6.4c0-6.75,6.23-11.62,16.4-11.62,9.39,0,15,4.95,15,13.24,0,12.38-2.9,13.83-2.9,30.32h1.19V205c0-14,8.71-18.19,17.25-18.19,9.31,0,14.27,5,14.27,14.34v20.41c0,2.65,1.1,4.27,2.56,4.27s2.64-1.36,2.64-4a8.65,8.65,0,0,0-2-5.29l1-.77A10.06,10.06,0,0,1,307,221.8c0,5.55-5.12,10.08-14.43,10.08-9.82,0-14.61-4.7-14.61-14.35V199.6c0-4.1-.85-5.64-2.64-5.64-3.08,0-5,3.76-5.22,10.85v20.58c0,2,.77,3.07,2.31,3.07a3,3,0,0,0,1.62-.51l.52.94c-2.82,1.71-6.84,3-13.33,3-10,0-14.69-4.78-14.6-14.61V178.5c.08-3.24-.94-5.12-2.82-5.12s-3.24,1.45-3.24,3.84a6.25,6.25,0,0,0,2.73,5.38Z" transform="translate(143.51 -163.56)"/>
      <path class="cls-2" d="M317.37,200.54a7.4,7.4,0,0,1,7.68-7.69c4.79,0,7.95,3.33,7.95,8.28,0,5.13-3.59,8.54-8.88,8.54-5.47,0-9.14-3.58-9.14-9,0-9.05,7.77-14,28-14,13.32,0,20.24,5.81,20.24,17,0,3.25-1.11,9.91-1.11,15.12,0,4.78,1,7.08,3.08,7.08,1.62,0,2.73-1.7,2.73-4.27a7.3,7.3,0,0,0-2-5.12l1-.68a9.54,9.54,0,0,1,2.13,5.8c0,8-6.66,10.34-13.15,10.34-8.88,0-14.09-4.1-14.09-17.08v-2.56h-1.2v2.56c0,13-11.1,17.08-16.73,17.08-7.43,0-11.79-3.67-11.79-9.91,0-6.66,5.72-10.93,14.6-10.93h12.73V200.71c0-6.67-4.19-10.68-11.36-10.68-7,0-11.79,4.1-12,10.16v.35Zm22.12,11.7h-2c-1.87,0-4.18,1.19-4.18,6.32,0,4.61.43,6,1.88,6,1.79,0,4.27-3.67,4.27-9.39Z" transform="translate(143.51 -163.56)"/>
      <path class="cls-2" d="M371.26,202.41a9.17,9.17,0,0,1-2.13-5.8c0-6,5.38-10,13.49-10,7.43,0,13.33,4.45,13.33,14.27v8.71h1.19V205c0-14,8.71-18.19,17.25-18.19,8.88,0,14.26,5.12,14.26,14.34v20.59c0,3,1.11,4.09,2.4,4.09,1.53,0,2.81-1.36,2.81-4a7.51,7.51,0,0,0-2-5.29l1-.77a9.58,9.58,0,0,1,2.14,6.06c0,5.55-5.12,10.08-14.43,10.08-8.8,0-14.61-4.19-14.61-14.35V199.6c0-4.1-.85-5.64-2.64-5.64-2.31,0-5,3-5,10.85v20.75c0,1.79.85,2.9,2.39,2.82a2.91,2.91,0,0,0,1.62-.43l.43.94c-2.82,1.71-6.83,3-13.32,3-10.68,0-14.61-5.89-14.61-14.61,0-5,1.37-13.66,1.37-17.59,0-4.61-1-7-2.91-7-1.7,0-3,1.45-3,3.93a7.54,7.54,0,0,0,1.88,5Z" transform="translate(143.51 -163.56)"/>
      <path class="cls-2" d="M463,170a39.11,39.11,0,0,1,18.11-4.7c9.82,0,14.6,4.27,14.6,13.07,0,9.57-.77,22.72-.77,42.19,0,3.5,1.11,4.95,2.91,4.95s3.07-1.28,3.07-4.44a6.35,6.35,0,0,0-2.56-5.38l.77-.94c.68.43,3,2.22,3,6.41,0,5.55-3.42,10.76-14.44,10.76-9.31,0-14.34-5.55-14.34-16.06v-3.58h-1.2c0,13.23-5.3,19.64-16.23,19.64-10.16,0-17-8.54-17-21.35,0-14.26,9.9-23.74,24.85-23.74h7.17v-12.9c0-2.73-1.28-4.1-3-4.1a9.85,9.85,0,0,0-4.44,1.2Zm7.94,18.11h-2.64c-5.13,0-6.58,4.61-6.58,20.41,0,15.37,1.88,17.59,4.19,17.59,1.87,0,5-3.76,5-13.83Z" transform="translate(143.51 -163.56)"/>
      <path class="cls-2" d="M505.1,202.76a9.67,9.67,0,0,1-2.13-6.07c0-5.55,5.12-10.08,14.43-10.08,10.25,0,14.6,5.13,14.6,14,0,6.58-.68,10.93-.68,17.59,0,6.07,1.54,7.18,2.9,7.18s2.74-1.62,2.74-4.27a7.5,7.5,0,0,0-1.88-5l.94-.77a9.15,9.15,0,0,1,2.13,5.81c0,5.72-6,10.33-15.28,10.33-9.66,0-14.18-5.12-14.18-13.15,0-8.54.68-12.13.68-21.18,0-3-1.11-4.44-2.39-4.44-1.54,0-2.82,1.36-2.82,4a7.47,7.47,0,0,0,2,5.3Zm26.56-29.55c0,5.63-5,9.9-11.78,9.9s-11.79-4.27-11.79-9.9c0-5.47,5-9.65,11.79-9.65S531.66,167.74,531.66,173.21Z" transform="translate(143.51 -163.56)"/>
      <path class="cls-2" d="M544.13,214.37c3.93,10.59,11.28,16.14,17.25,16.14a3.86,3.86,0,0,0,4.19-4.18c0-6.92-22.55-8.63-22.55-24.17,0-9.4,8-15.72,19.82-15.72,9.48,0,11.18,3.85,15.11,3.85a2.67,2.67,0,0,0,3-3h1v14.18h-1c-3.24-6.24-6.92-13.58-14.86-13.58a3.38,3.38,0,0,0-3.5,3.58c0,9.91,22.38,8.63,22.38,25.2,0,9.31-6.84,15.2-20.67,15.2-10.93,0-12.81-5.72-17.08-5.72-2,0-3.08,1.7-3.08,5h-1.19V214.37Z" transform="translate(143.51 -163.56)"/>
      <path class="cls-2" d="M642.44,224.11c-8,6.06-15.46,7.77-24.52,7.77-16.82,0-26.9-8.37-26.9-21.78,0-14.69,10.59-23.49,28.19-23.49,14.86,0,22.88,6.24,22.88,17.94,0,.68-.25,1.2-1.11,1.2H613.57V206c0,17.17,2.73,22.8,12.89,22.8,4.79,0,9.57-1.53,15.21-5.72Zm-23.83-19.56c2.39,0,3.07-.77,3.07-3.67,0-8.71-1.45-13-4.1-13s-3.93,5.72-4,16.65Z" transform="translate(143.51 -163.56)"/>
    </g>
    <g>
      <path class="cls-3" d="M60.35,241.11c0-7.83,4.5-12,12-12,6.08,0,9.75,3.62,9.75,9.92V252.9c0,2,.76,3,1.64,3,1.05,0,1.93-.93,1.93-2.74a5.26,5.26,0,0,0-1.35-3.68l.7-.47a6.55,6.55,0,0,1,1.46,4.15c0,3.79-3.5,6.89-9.86,6.89-6.72,0-10-3.22-10-9.81V237.9c0-2.69-.76-3.74-2-3.74-1.87,0-3.39,2.22-3.39,7v15.24c0,.87.35,1.34,1,1.34a2.8,2.8,0,0,0,1.87-1l.58.58c-.7.7-3,2.81-9.57,2.81-6.37,0-9.41-3.22-9.41-9.81V238c0-2.8-.58-3.85-1.81-3.85-1.57,0-3.44,2-3.44,7.41v14.78c0,.87.35,1.34,1.05,1.34a2.8,2.8,0,0,0,1.87-1l.58.58c-.7.7-3,2.81-9.57,2.81-6.78,0-10-3.27-10-10,0-3.45.94-9.23.94-11.91,0-4.15-1.05-4.91-2-4.91s-1.87,1.11-1.87,2.92a5.13,5.13,0,0,0,1.29,3.45l-.65.52a6.28,6.28,0,0,1-1.46-4c0-3.91,2.75-7.06,9.11-7.06,5.08,0,9.11,3,9.11,9.75v5.31h.82v-2.51c0-9.58,6.13-12.55,10.86-12.55,5.55,0,9.05,2.86,9.05,8.87v6.19h.82Z" transform="translate(143.51 -163.56)"/>
      <path class="cls-3" d="M124.24,254.77c-5.49,4.15-10.57,5.32-16.76,5.32-11.5,0-18.39-5.73-18.39-14.89,0-10,7.24-16.06,19.27-16.06,10.16,0,15.65,4.26,15.65,12.26,0,.47-.18.82-.76.82H104.5v.17c0,11.74,1.87,15.59,8.82,15.59,3.27,0,6.54-1.05,10.39-3.91ZM108,241.4c1.63,0,2.1-.53,2.1-2.51,0-6-1-8.88-2.8-8.88s-2.69,3.91-2.75,11.39Z" transform="translate(143.51 -163.56)"/>
      <path class="cls-3" d="M128.56,240.17a6.24,6.24,0,0,1-1.69-4.2c0-4.09,3.74-6.83,9.28-6.83,5.73,0,9.11,3.68,9.11,9.75v6h.82v-3.15c0-8,4.15-12.26,10.57-12.26,4.61,0,7.65,3,7.65,7.41,0,4.27-2.92,7.07-7.36,7.07-4,0-7-2.69-7-6.6,0-3.62,2.57-6.25,6.72-6.25v-.81c-5.84,0-9.75,4-9.75,11.32v14.19c0,1.23.58,1.93,1.63,1.93a5.28,5.28,0,0,0,2.28-.58l.35.64c-2.45,1.52-6.36,2.34-10.34,2.34-6.24,0-10-3.74-10-10,0-3.45.93-10.22.93-12.91s-.64-3.91-2-3.91-2.1,1.05-2.1,2.69a6.08,6.08,0,0,0,1.51,3.68Z" transform="translate(143.51 -163.56)"/>
      <path class="cls-3" d="M200.92,254.77c-5.49,4.15-10.57,5.32-16.76,5.32-10.87,0-18.4-4.33-18.4-14.72,0-8.12,6.31-16.23,20.32-16.23,8.7,0,13.73,3.62,13.73,9.63a6.58,6.58,0,0,1-6.95,6.89c-4,0-6.66-2.68-6.66-6.36a6,6,0,0,1,6.31-6.08,5.29,5.29,0,0,1,5.66,5.49H199v-.17c-.12-4.38-3.74-7.36-8.47-7.36-5.84,0-9.34,4.5-9.34,13.84,0,8.53,3,13,8.82,13,3.27,0,6.54-1.16,10.39-4Z" transform="translate(143.51 -163.56)"/>
      <path class="cls-3" d="M204,227a4.91,4.91,0,0,1-2.16-4.38c0-4.61,4.27-7.94,11.21-7.94,6.43,0,10.28,3.39,10.28,9,0,8.47-2,9.46-2,20.73h.81v-2.8c0-9.58,6-12.44,11.8-12.44,6.37,0,9.75,3.45,9.75,9.81v14c0,1.81.76,2.92,1.75,2.92s1.81-.93,1.81-2.74a5.86,5.86,0,0,0-1.34-3.62l.7-.53A6.88,6.88,0,0,1,248,253.2c0,3.79-3.5,6.89-9.87,6.89-6.71,0-10-3.22-10-9.81V238c0-2.8-.59-3.85-1.81-3.85-2.1,0-3.39,2.57-3.56,7.41v14.08c0,1.34.52,2.1,1.57,2.1a2.1,2.1,0,0,0,1.11-.35l.35.64c-1.93,1.17-4.67,2-9.11,2-6.83,0-10-3.27-10-10V223.59c.05-2.22-.65-3.51-1.93-3.51s-2.22,1-2.22,2.63a4.28,4.28,0,0,0,1.87,3.68Z" transform="translate(143.51 -163.56)"/>
      <path class="cls-3" d="M255.11,238.65a5.06,5.06,0,0,1,5.26-5.25c3.27,0,5.43,2.28,5.43,5.66s-2.46,5.84-6.08,5.84a5.87,5.87,0,0,1-6.25-6.19c0-6.19,5.32-9.57,19.16-9.57,9.11,0,13.84,4,13.84,11.62,0,2.22-.76,6.77-.76,10.33,0,3.27.7,4.85,2.1,4.85,1.11,0,1.87-1.17,1.87-2.92a5,5,0,0,0-1.34-3.5l.7-.47a6.51,6.51,0,0,1,1.46,4c0,5.43-4.56,7.07-9,7.07-6.07,0-9.63-2.81-9.63-11.68v-1.76h-.82v1.76c0,8.87-7.59,11.68-11.44,11.68-5.08,0-8.06-2.51-8.06-6.78,0-4.55,3.91-7.47,10-7.47h8.7v-7.07c0-4.55-2.86-7.3-7.76-7.3s-8.06,2.8-8.18,6.95v.23Zm15.12,8h-1.34c-1.28,0-2.86.82-2.86,4.33,0,3.15.29,4.08,1.28,4.08,1.23,0,2.92-2.51,2.92-6.42Z" transform="translate(143.51 -163.56)"/>
      <path class="cls-3" d="M292,239.94a6.27,6.27,0,0,1-1.46-4c0-4.09,3.68-6.83,9.23-6.83,5.08,0,9.1,3,9.1,9.75v6h.82v-3.15c0-9.58,6-12.44,11.8-12.44,6.07,0,9.75,3.51,9.75,9.81v14.08c0,2,.76,2.8,1.64,2.8,1.05,0,1.92-.93,1.92-2.74a5.11,5.11,0,0,0-1.34-3.62l.7-.53a6.61,6.61,0,0,1,1.46,4.15c0,3.79-3.5,6.89-9.87,6.89-6,0-10-2.87-10-9.81V238c0-2.8-.59-3.85-1.81-3.85-1.58,0-3.45,2-3.45,7.41v14.19c0,1.23.58,2,1.64,1.93a2,2,0,0,0,1.1-.29l.3.64c-1.93,1.17-4.68,2-9.11,2-7.3,0-10-4-10-10,0-3.45.94-9.34.94-12,0-3.15-.71-4.79-2-4.79s-2,1-2,2.69a5.15,5.15,0,0,0,1.28,3.44Z" transform="translate(143.51 -163.56)"/>
      <path class="cls-3" d="M354.68,217.75a26.65,26.65,0,0,1,12.38-3.21c6.71,0,10,2.92,10,8.93,0,6.54-.52,15.54-.52,28.85,0,2.39.76,3.39,2,3.39s2.11-.88,2.11-3a4.34,4.34,0,0,0-1.76-3.68l.53-.64a4.93,4.93,0,0,1,2,4.38c0,3.79-2.33,7.36-9.87,7.36-6.36,0-9.81-3.8-9.81-11v-2.46h-.81c0,9.06-3.62,13.44-11.1,13.44-6.95,0-11.62-5.84-11.62-14.6,0-9.76,6.77-16.24,17-16.24h4.91v-8.81c0-1.87-.88-2.81-2.05-2.81a6.84,6.84,0,0,0-3,.82Zm5.43,12.38H358.3c-3.51,0-4.5,3.15-4.5,14,0,10.51,1.29,12,2.86,12,1.29,0,3.45-2.57,3.45-9.47Z" transform="translate(143.51 -163.56)"/>
      <path class="cls-3" d="M383.47,240.17A6.54,6.54,0,0,1,382,236c0-3.8,3.5-6.89,9.87-6.89,7,0,10,3.5,10,9.57,0,4.5-.46,7.48-.46,12,0,4.15,1.05,4.91,2,4.91s1.87-1.11,1.87-2.92a5.18,5.18,0,0,0-1.28-3.45l.64-.52a6.22,6.22,0,0,1,1.46,4c0,3.91-4.09,7.06-10.45,7.06-6.6,0-9.7-3.5-9.7-9,0-5.84.47-8.29.47-14.48,0-2-.76-3-1.64-3-1.05,0-1.92.94-1.92,2.75a5.16,5.16,0,0,0,1.34,3.62ZM401.63,220c0,3.85-3.45,6.77-8.06,6.77s-8.06-2.92-8.06-6.77,3.45-6.6,8.06-6.6S401.63,216.23,401.63,220Z" transform="translate(143.51 -163.56)"/>
      <path class="cls-3" d="M410.16,248.12c2.68,7.24,7.7,11,11.79,11a2.64,2.64,0,0,0,2.86-2.86c0-4.73-15.41-5.9-15.41-16.53,0-6.42,5.43-10.74,13.54-10.74,6.49,0,7.65,2.63,10.34,2.63a1.82,1.82,0,0,0,2-2.05H436v9.7h-.71c-2.21-4.27-4.73-9.29-10.16-9.29a2.31,2.31,0,0,0-2.39,2.45c0,6.78,15.3,5.9,15.3,17.23,0,6.37-4.67,10.4-14.13,10.4-7.48,0-8.76-3.92-11.68-3.92-1.34,0-2.1,1.17-2.1,3.45h-.82v-11.5Z" transform="translate(143.51 -163.56)"/>
      <path class="cls-3" d="M477.37,254.77c-5.49,4.15-10.57,5.32-16.76,5.32-11.5,0-18.39-5.73-18.39-14.89,0-10,7.24-16.06,19.27-16.06,10.16,0,15.65,4.26,15.65,12.26,0,.47-.18.82-.76.82H457.63v.17c0,11.74,1.87,15.59,8.82,15.59,3.27,0,6.54-1.05,10.39-3.91ZM461.08,241.4c1.63,0,2.1-.53,2.1-2.51,0-6-1-8.88-2.8-8.88s-2.69,3.91-2.75,11.39Z" transform="translate(143.51 -163.56)"/>
    </g>
  </g>
</svg>
