<svg id="Layer_1" data-name="Layer 1" xmlns="http://www.w3.org/2000/svg" width="419.58" height="134.4" viewBox="0 0 419.58 134.4">
  <defs>
    <style>
      .cls-1 {
        fill: #282828;
      }

      .cls-2 {
        fill: #455a60;
      }

      .cls-3 {
        fill: #fff;
      }
    </style>
  </defs>
  <title>music2</title>
  <g>
    <g>
      <path class="cls-1" d="M97.67,270.23c0-11.44,6.56-17.49,17.48-17.49,8.88,0,14.25,5.29,14.25,14.5v20.22c0,3,1.11,4.43,2.39,4.43,1.54,0,2.82-1.36,2.82-4a7.69,7.69,0,0,0-2-5.37l1-.68a9.63,9.63,0,0,1,2.13,6.05c0,5.55-5.12,10.07-14.42,10.07-9.81,0-14.59-4.69-14.59-14.33V265.53c0-3.92-1.11-5.46-3-5.46-2.73,0-5,3.24-5,10.16v22.26c0,1.28.51,2,1.54,2a4.1,4.1,0,0,0,2.73-1.45l.85.86c-1,1-4.44,4.09-14,4.09-9.3,0-13.74-4.69-13.74-14.33V265.7c0-4.09-.85-5.63-2.64-5.63-2.31,0-5,3-5,10.84v21.58c0,1.28.52,2,1.54,2A4.06,4.06,0,0,0,72.84,293l.85.86c-1,1-4.43,4.09-14,4.09C49.81,298,45,293.17,45,283.36c0-5,1.36-13.48,1.36-17.4,0-6.06-1.53-7.17-2.9-7.17s-2.73,1.62-2.73,4.27a7.49,7.49,0,0,0,1.88,5l-.94.77a9.14,9.14,0,0,1-2.13-5.8c0-5.72,4-10.32,13.31-10.32,7.42,0,13.31,4.43,13.31,14.24v7.77h1.19v-3.67c0-14,9-18.34,15.87-18.34,8.1,0,13.22,4.18,13.22,13v9.05h1.2Z" transform="translate(-39.57 -163.56)"/>
      <path class="cls-1" d="M168.05,255.72c2.81-1.7,6.82-3,13.3-3,10.67,0,14.59,5.88,14.59,14.58,0,5-1.36,13.48-1.36,17.41,0,6.06,1.53,7.16,2.9,7.16s2.73-1.62,2.73-4.26a7.47,7.47,0,0,0-1.88-5l.94-.77a9.11,9.11,0,0,1,2.13,5.8c0,5.71-4,10.32-13.22,10.32-7.42,0-13.31-4.43-13.31-14.25V275h-1.19v4.61c0,11.94-5.89,18.17-17.24,18.17-10.4,0-14.24-5.71-14.24-14.33V263.06c0-2.56-.86-4-2.39-4S137,260.16,137,262.8a7.79,7.79,0,0,0,2,5.29l-1,.77a9.07,9.07,0,0,1-2.13-6.06c0-5.54,5.8-10.06,15.7-10.06,10.23,0,13.3,4.77,13.3,13.3V285c0,3.67,1,5.63,2.9,5.63,2.9,0,4.78-4.35,4.78-10.83V259.05c0-1.88-.77-2.9-2.3-2.9a3,3,0,0,0-1.62.51Z" transform="translate(-39.57 -163.56)"/>
      <path class="cls-1" d="M207.88,280.46c3.93,10.58,11.27,16.13,17.24,16.13a3.86,3.86,0,0,0,4.18-4.18c0-6.91-22.53-8.62-22.53-24.15,0-9.38,7.94-15.69,19.8-15.69,9.47,0,11.17,3.83,15.1,3.83a2.66,2.66,0,0,0,3-3h1v14.16h-1c-3.24-6.23-6.91-13.56-14.84-13.56a3.38,3.38,0,0,0-3.5,3.58c0,9.9,22.35,8.62,22.35,25.17,0,9.3-6.82,15.18-20.64,15.18-10.92,0-12.8-5.71-17.06-5.71-2,0-3.08,1.7-3.08,5h-1.19V280.46Z" transform="translate(-39.57 -163.56)"/>
      <path class="cls-1" d="M252.5,268.86a9.64,9.64,0,0,1-2.13-6.06c0-5.54,5.12-10.06,14.42-10.06,10.23,0,14.59,5.11,14.59,14,0,6.57-.69,10.92-.69,17.57,0,6.06,1.54,7.17,2.9,7.17s2.73-1.62,2.73-4.27a7.54,7.54,0,0,0-1.87-5l.93-.77a9.13,9.13,0,0,1,2.14,5.8c0,5.72-6,10.33-15.27,10.33-9.64,0-14.17-5.12-14.17-13.14,0-8.53.69-12.12.69-21.16,0-3-1.11-4.44-2.39-4.44-1.54,0-2.82,1.37-2.82,4a7.46,7.46,0,0,0,2,5.29ZM279,239.34c0,5.63-5,9.9-11.77,9.9s-11.77-4.27-11.77-9.9c0-5.46,5-9.64,11.77-9.64S279,233.88,279,239.34Z" transform="translate(-39.57 -163.56)"/>
      <path class="cls-1" d="M340.71,290.19c-8,6.06-15.44,7.76-24.48,7.76-15.87,0-26.88-6.31-26.88-21.5,0-11.86,9.22-23.71,29.69-23.71,12.71,0,20,5.29,20,14.07,0,5.72-3.84,10.07-10.15,10.07-5.8,0-9.73-3.92-9.73-9.3,0-5,3.67-8.87,9.22-8.87,4.95,0,8.27,3.24,8.27,8h1.2v-.26c-.17-6.4-5.46-10.75-12.37-10.75-8.53,0-13.65,6.57-13.65,20.22,0,12.46,4.43,18.94,12.88,18.94,4.78,0,9.55-1.71,15.19-5.89Z" transform="translate(-39.57 -163.56)"/>
    </g>
    <g>
      <path class="cls-2" d="M215.81,204.12c0-11.44,6.58-17.51,17.51-17.51,8.88,0,14.26,5.3,14.26,14.52v20.24c0,3,1.11,4.44,2.39,4.44,1.54,0,2.82-1.36,2.82-4a7.77,7.77,0,0,0-2-5.38l1-.68A9.58,9.58,0,0,1,254,221.8c0,5.55-5.13,10.08-14.44,10.08-9.82,0-14.6-4.7-14.6-14.35v-18.1c0-3.93-1.11-5.47-3-5.47-2.73,0-5,3.25-5,10.16v22.29c0,1.28.51,2,1.54,2a4.14,4.14,0,0,0,2.73-1.45l.85.85c-1,1-4.44,4.1-14,4.1-9.31,0-13.75-4.7-13.75-14.35V199.6c0-4.1-.86-5.64-2.65-5.64-2.31,0-5,3-5,10.85v21.6c0,1.28.51,2,1.54,2a4.1,4.1,0,0,0,2.73-1.45l.85.85c-1,1-4.44,4.1-14,4.1-9.91,0-14.69-4.78-14.69-14.61,0-5,1.37-13.49,1.37-17.42,0-6.06-1.54-7.17-2.91-7.17s-2.73,1.62-2.73,4.27a7.52,7.52,0,0,0,1.88,5l-.94.77a9.17,9.17,0,0,1-2.14-5.81c0-5.72,4-10.34,13.33-10.34,7.43,0,13.32,4.45,13.32,14.27v7.77h1.19V205c0-14,9-18.37,15.89-18.37,8.11,0,13.24,4.19,13.24,13v9.05h1.19Z" transform="translate(-39.57 -163.56)"/>
      <path class="cls-2" d="M286.28,189.6c2.82-1.7,6.83-3,13.32-3,10.68,0,14.61,5.9,14.61,14.61,0,5-1.37,13.49-1.37,17.42,0,6.06,1.54,7.17,2.9,7.17s2.74-1.62,2.74-4.27a7.49,7.49,0,0,0-1.88-5l.94-.77a9.2,9.2,0,0,1,2.13,5.8c0,5.73-4,10.34-13.24,10.34-7.43,0-13.32-4.44-13.32-14.26v-8.71h-1.19v4.61c0,11.95-5.9,18.19-17.26,18.19-10.42,0-14.26-5.72-14.26-14.35V197c0-2.56-.85-4-2.39-4s-2.82,1.11-2.82,3.76a7.85,7.85,0,0,0,2,5.3l-1,.77a9.09,9.09,0,0,1-2.13-6.07c0-5.55,5.8-10.08,15.71-10.08,10.25,0,13.32,4.79,13.32,13.33v19c0,3.67,1,5.63,2.91,5.63,2.9,0,4.78-4.35,4.78-10.84V192.93c0-1.87-.77-2.9-2.31-2.9a3,3,0,0,0-1.62.51Z" transform="translate(-39.57 -163.56)"/>
      <path class="cls-2" d="M326.17,214.37c3.92,10.59,11.27,16.14,17.25,16.14a3.86,3.86,0,0,0,4.18-4.18c0-6.92-22.54-8.63-22.54-24.17,0-9.4,7.94-15.72,19.81-15.72,9.48,0,11.19,3.85,15.12,3.85a2.66,2.66,0,0,0,3-3h1v14.18h-1c-3.24-6.24-6.91-13.58-14.85-13.58a3.38,3.38,0,0,0-3.51,3.58c0,9.91,22.38,8.63,22.38,25.2,0,9.31-6.83,15.2-20.67,15.2-10.93,0-12.81-5.72-17.08-5.72-2,0-3.07,1.7-3.07,5H325V214.37Z" transform="translate(-39.57 -163.56)"/>
      <path class="cls-2" d="M370.84,202.76a9.61,9.61,0,0,1-2.14-6.07c0-5.55,5.12-10.08,14.43-10.08,10.25,0,14.61,5.13,14.61,14,0,6.58-.69,10.93-.69,17.59,0,6.07,1.54,7.18,2.91,7.18s2.73-1.62,2.73-4.27a7.5,7.5,0,0,0-1.88-5l.94-.77a9.14,9.14,0,0,1,2.14,5.81c0,5.72-6,10.33-15.29,10.33-9.65,0-14.18-5.12-14.18-13.15,0-8.54.69-12.13.69-21.18,0-3-1.11-4.44-2.4-4.44-1.53,0-2.81,1.36-2.81,4a7.52,7.52,0,0,0,2,5.3Zm26.56-29.55c0,5.63-5,9.9-11.79,9.9s-11.79-4.27-11.79-9.9c0-5.47,5-9.65,11.79-9.65S397.4,167.74,397.4,173.21Z" transform="translate(-39.57 -163.56)"/>
      <path class="cls-2" d="M459.15,224.11c-8,6.06-15.46,7.77-24.52,7.77-15.88,0-26.9-6.32-26.9-21.52,0-11.87,9.23-23.75,29.72-23.75,12.73,0,20.07,5.3,20.07,14.1,0,5.72-3.84,10.07-10.16,10.07-5.81,0-9.74-3.92-9.74-9.3,0-5,3.68-8.89,9.23-8.89,4.95,0,8.28,3.25,8.28,8h1.2v-.26c-.17-6.4-5.47-10.76-12.39-10.76-8.54,0-13.66,6.58-13.66,20.24,0,12.47,4.44,19,12.89,19,4.79,0,9.57-1.7,15.21-5.89Z" transform="translate(-39.57 -163.56)"/>
    </g>
    <g>
      <path class="cls-3" d="M185.67,241.11c0-7.83,4.5-12,12-12,6.08,0,9.76,3.62,9.76,9.92V252.9c0,2,.76,3,1.63,3,1.05,0,1.93-.93,1.93-2.74a5.31,5.31,0,0,0-1.34-3.68l.7-.47a6.61,6.61,0,0,1,1.46,4.15c0,3.79-3.51,6.89-9.87,6.89-6.72,0-10-3.22-10-9.81V237.9c0-2.69-.76-3.74-2-3.74-1.87,0-3.39,2.22-3.39,7v15.24c0,.87.35,1.34,1,1.34a2.8,2.8,0,0,0,1.87-1l.58.58c-.7.7-3,2.81-9.57,2.81-6.37,0-9.4-3.22-9.4-9.81V238c0-2.8-.59-3.85-1.81-3.85-1.58,0-3.45,2-3.45,7.41v14.78c0,.87.35,1.34,1.05,1.34a2.8,2.8,0,0,0,1.87-1l.58.58c-.7.7-3,2.81-9.57,2.81-6.78,0-10.05-3.27-10.05-10,0-3.45.94-9.23.94-11.91,0-4.15-1.05-4.91-2-4.91s-1.87,1.11-1.87,2.92a5.13,5.13,0,0,0,1.29,3.45l-.64.52a6.22,6.22,0,0,1-1.46-4c0-3.91,2.74-7.06,9.11-7.06,5.08,0,9.11,3,9.11,9.75v5.31h.81v-2.51c0-9.58,6.13-12.55,10.86-12.55,5.55,0,9.06,2.86,9.06,8.87v6.19h.81Z" transform="translate(-39.57 -163.56)"/>
      <path class="cls-3" d="M233.85,231.18c1.93-1.17,4.67-2,9.11-2,7.3,0,10,4,10,10,0,3.45-.94,9.23-.94,11.91,0,4.15,1.05,4.91,2,4.91s1.87-1.11,1.87-2.92a5.1,5.1,0,0,0-1.29-3.44l.65-.53a6.33,6.33,0,0,1,1.46,4c0,3.91-2.75,7.07-9.06,7.07-5.08,0-9.11-3-9.11-9.76v-6h-.81v3.15c0,8.18-4,12.44-11.8,12.44-7.12,0-9.75-3.91-9.75-9.81v-14c0-1.75-.58-2.74-1.64-2.74s-1.92.76-1.92,2.57a5.31,5.31,0,0,0,1.34,3.62l-.7.52a6.2,6.2,0,0,1-1.46-4.14c0-3.8,4-6.89,10.74-6.89,7,0,9.11,3.27,9.11,9.11v13c0,2.51.7,3.85,2,3.85,2,0,3.27-3,3.27-7.41V233.46c0-1.29-.53-2-1.58-2a2.1,2.1,0,0,0-1.11.35Z" transform="translate(-39.57 -163.56)"/>
      <path class="cls-3" d="M261.13,248.12c2.68,7.24,7.7,11,11.79,11a2.64,2.64,0,0,0,2.86-2.86c0-4.73-15.41-5.9-15.41-16.53,0-6.42,5.43-10.74,13.54-10.74,6.49,0,7.65,2.63,10.34,2.63a1.82,1.82,0,0,0,2-2.05h.7v9.7h-.7c-2.22-4.27-4.73-9.29-10.16-9.29a2.31,2.31,0,0,0-2.39,2.45c0,6.78,15.3,5.9,15.3,17.23,0,6.37-4.67,10.4-14.13,10.4-7.48,0-8.76-3.92-11.68-3.92-1.35,0-2.1,1.17-2.1,3.45h-.82v-11.5Z" transform="translate(-39.57 -163.56)"/>
      <path class="cls-3" d="M291.67,240.17a6.54,6.54,0,0,1-1.46-4.14c0-3.8,3.5-6.89,9.87-6.89,7,0,10,3.5,10,9.57,0,4.5-.47,7.48-.47,12,0,4.15,1.06,4.91,2,4.91s1.87-1.11,1.87-2.92a5.13,5.13,0,0,0-1.29-3.45l.65-.52a6.28,6.28,0,0,1,1.46,4c0,3.91-4.09,7.06-10.46,7.06-6.6,0-9.69-3.5-9.69-9,0-5.84.47-8.29.47-14.48,0-2-.76-3-1.64-3-1.05,0-1.93.94-1.93,2.75a5.11,5.11,0,0,0,1.35,3.62ZM309.83,220c0,3.85-3.45,6.77-8.06,6.77s-8.06-2.92-8.06-6.77,3.45-6.6,8.06-6.6S309.83,216.23,309.83,220Z" transform="translate(-39.57 -163.56)"/>
      <path class="cls-3" d="M352.05,254.77c-5.49,4.15-10.57,5.32-16.76,5.32-10.86,0-18.4-4.33-18.4-14.72,0-8.12,6.31-16.23,20.33-16.23,8.7,0,13.72,3.62,13.72,9.63a6.58,6.58,0,0,1-6.95,6.89c-4,0-6.66-2.68-6.66-6.36a6,6,0,0,1,6.31-6.08,5.28,5.28,0,0,1,5.66,5.49h.82v-.17c-.12-4.38-3.74-7.36-8.47-7.36-5.84,0-9.34,4.5-9.34,13.84,0,8.53,3,13,8.82,13,3.27,0,6.54-1.16,10.39-4Z" transform="translate(-39.57 -163.56)"/>
    </g>
  </g>
</svg>
